<?xml version="1.0" encoding="UTF-8"?><svg id="Layer_1" xmlns="http://www.w3.org/2000/svg" viewBox="0 0 432 432"><defs><style>.cls-1{fill:#f7c63a;}.cls-2{fill:#231f20;}.cls-3{fill:none;stroke:#fff;stroke-miterlimit:10;stroke-width:5px;}</style></defs><path class="cls-1" d="M322.87,208.45c0,34.22-7.28,69.81-35.6,81.78-40.74,17.21-99.36-33.39-130.21-53.06-17.47-11.14-39.31,1.63-39.31,1.63-3.06-10.39-4-18.9-4-30.35,0-61.01,46.81-110.46,104.56-110.46s104.56,49.45,104.56,110.46Z"/><g><path class="cls-2" d="M12.74,224.62c-1.75,1.84-2.64,3.88-2.68,6.09-.05,2.21,.64,4.03,2.06,5.44,1.44,1.43,3.06,2.16,4.85,2.17,1.78,.01,3.69-.3,5.73-.92,2.04-.63,4.14-1.39,6.32-2.27,2.18-.89,4.41-1.52,6.71-1.88,2.3-.38,4.58-.3,6.88,.2,2.28,.52,4.55,1.9,6.8,4.11,1.96,1.95,3.39,4.11,4.3,6.49s1.27,4.85,1.1,7.4-.88,5.12-2.11,7.66c-1.24,2.54-3.01,5.03-5.29,7.46-2.06,2.16-4.13,3.88-6.18,5.14-2.07,1.26-3.86,1.99-5.37,2.21-.99-1.78-1.92-3.36-2.8-4.78-.87-1.39-1.88-2.84-3.02-4.37l1.08-1.15c1.02,.68,2.11,1.2,3.3,1.5,1.19,.33,2.4,.44,3.63,.33,1.24-.08,2.48-.46,3.73-1.09,1.26-.63,2.44-1.56,3.59-2.76,2.28-2.4,3.38-4.75,3.29-7.1-.09-2.29-.96-4.26-2.62-5.9-1.5-1.49-3.13-2.25-4.92-2.29-1.78-.05-3.66,.22-5.64,.83-1.99,.6-4.06,1.34-6.24,2.23s-4.38,1.5-6.61,1.86c-2.24,.36-4.5,.26-6.77-.27-2.27-.55-4.53-1.93-6.76-4.14-2.04-2.02-3.5-4.19-4.37-6.49-.87-2.31-1.24-4.6-1.12-6.9s.68-4.53,1.67-6.71,2.35-4.17,4.06-5.97c2.06-2.17,4.11-3.81,6.16-4.93,2.06-1.12,4.09-1.82,6.09-2.09,.56,1.26,1.15,2.44,1.74,3.54,.6,1.09,1.36,2.49,2.27,4.18l-.85,.9c-4.59-2.06-8.59-1.31-11.98,2.27Z"/><path class="cls-2" d="M87.93,234.45c-3.1,1.67-6.16,2.88-9.19,3.65-3.05,.78-5.94,.92-8.74,.41-2.79-.49-5.38-1.67-7.77-3.51s-4.49-4.52-6.29-8.04c-1.02-1.98-1.91-3.76-2.68-5.34-.77-1.57-1.51-3.03-2.19-4.37s-1.34-2.62-1.94-3.88c-.61-1.26-1.27-2.55-1.95-3.89-2.06-4.02-3.74-7.24-5.06-9.7-1.31-2.44-2.34-4.27-3.07-5.46,1.03-.41,2.07-.86,3.13-1.32,1.06-.48,2.06-.97,3.03-1.49s1.95-1.09,2.93-1.71,1.92-1.23,2.84-1.86c1.98,5.07,3.98,9.7,6,13.89s4.13,8.41,6.3,12.67c2.31,4.52,4.49,7.99,6.54,10.43,2.04,2.43,4.07,4.07,6.09,4.93,2,.85,4.03,1.04,6.08,.57,2.06-.46,4.26-1.32,6.64-2.59,2.91-1.56,4.81-3.52,5.69-5.9,.89-2.36,1.12-5.01,.71-7.95-.43-2.92-1.36-6.05-2.8-9.34-1.44-3.3-3.05-6.69-4.82-10.16-1.75-3.41-3.54-6.8-5.38-10.15-1.83-3.33-3.71-6.66-5.66-9.98,.73-.26,1.43-.53,2.1-.79s1.27-.53,1.8-.82c.63-.34,1.22-.7,1.76-1.09,.53-.38,1.1-.79,1.68-1.23,.45,1.15,1.11,2.66,1.95,4.55s1.83,4.06,2.97,6.51c1.14,2.44,2.4,5.15,3.82,8.08,1.4,2.94,2.94,6.02,4.58,9.25,4.42,8.62,5.77,15.77,4.05,21.46-1.72,5.69-6.09,10.42-13.13,14.18Z"/><path class="cls-2" d="M117.02,179.78c.03-3.86,0-7.12-.08-9.74-.09-2.64-.15-4.96-.19-6.97,1.52,.29,2.76,.44,3.69,.45,.93,0,2.16-.12,3.7-.38,6.46,8.18,12.54,17.04,23.87,28.73,0,0,13.36,18.41,11.16-28.42,1.54,.3,2.76,.45,3.7,.45,.92,.01,2.15-.11,3.69-.38-.32,5.09-.57,9.68-.77,13.79-.2,4.11-.37,7.99-.51,11.62-.15,3.63-.24,7.22-.31,10.78-.05,3.55-.11,7.35-.13,11.38l-.09,10.07c-1.1-.12-2.22-.19-3.37-.2-1.2,0-2.27,.04-3.19,.15,.28-12.66-12.71-23.03-24.06-22.09-15.75,0-11.52,21.15-11.48,21.76-.65-.12-1.31-.18-1.96-.19-.65,0-1.28-.01-1.88-.01-1.26-.01-2.52,.03-3.78,.14,.12-.45,.27-2.05,.45-4.78,.19-2.75,.39-6.09,.61-10.02,.23-3.95,.43-8.22,.61-12.84,.17-4.62,.28-9.04,.32-13.29Z"/><path class="cls-2" d="M205.21,180.63c-2.32-.96-4.51-1.04-6.53-.25-2.02,.81-3.41,2.13-4.13,4-.76,1.93-.8,3.73-.15,5.42,.67,1.68,1.67,3.37,3.01,5.07,1.35,1.69,2.83,3.4,4.45,5.12,1.63,1.72,3.05,3.61,4.25,5.64,1.2,2.02,2.02,4.22,2.42,6.58,.39,2.36,.01,5.03-1.15,7.99-1.02,2.59-2.43,4.77-4.25,6.53-1.8,1.76-3.9,3.05-6.28,3.85-2.38,.79-4.96,1.09-7.73,.89s-5.69-.93-8.74-2.19c-2.75-1.12-5.08-2.42-7-3.91-1.92-1.47-3.27-2.9-4.05-4.23,1.22-1.61,2.31-3.09,3.26-4.45,.93-1.37,1.88-2.87,2.83-4.53l1.44,.6c-.24,1.22-.28,2.46-.12,3.7s.52,2.42,1.08,3.55c.55,1.13,1.35,2.17,2.4,3.11,1.04,.94,2.32,1.72,3.85,2.35,3.05,1.26,5.6,1.39,7.67,.44,2.06-.97,3.51-2.54,4.37-4.73,.77-1.97,.84-3.81,.21-5.52s-1.59-3.37-2.89-5.03c-1.31-1.64-2.76-3.33-4.39-5.05-1.62-1.72-3.02-3.56-4.18-5.56-1.16-1.98-1.94-4.15-2.31-6.5-.37-2.36,.03-5.01,1.19-7.98,1.06-2.69,2.46-4.89,4.22-6.58,1.75-1.69,3.69-2.92,5.81-3.67s4.35-1.08,6.71-.96c2.34,.11,4.65,.64,6.93,1.57,2.74,1.13,5.01,2.46,6.8,3.97s3.19,3.17,4.19,4.97c-.92,1.01-1.78,2.01-2.54,2.98-.77,.98-1.74,2.23-2.93,3.73l-1.14-.46c.12-5.14-2.07-8.62-6.6-10.47Z"/><path class="cls-2" d="M249.03,231.19c-1.82-1.01-3.66-1.98-5.53-2.91-1.87-.94-3.75-1.84-5.65-2.72-1.9-.89-3.79-1.73-5.72-2.57l-2.04,4.3c-1.99,4.17-3.71,7.89-5.16,11.2-1.44,3.29-2.82,6.54-4.1,9.75-.79-.52-1.68-1.01-2.66-1.5-.99-.49-2.1-1.04-3.33-1.65s-2.34-1.17-3.31-1.65c-.99-.49-1.92-.9-2.8-1.22,1.68-3.02,3.34-6.13,5-9.31,1.64-3.2,3.46-6.88,5.45-11.06l4.89-10.26c1.99-4.18,3.7-7.91,5.16-11.2,1.44-3.29,2.84-6.62,4.21-9.98,.79,.52,1.66,1.05,2.6,1.63,.95,.56,2.03,1.15,3.26,1.76s2.36,1.12,3.38,1.54c1.02,.41,1.95,.78,2.86,1.09-1.82,3.14-3.53,6.3-5.1,9.45-1.59,3.15-3.39,6.83-5.38,10.99,1.26,.7,2.78,1.49,4.57,2.42,1.78,.92,3.99,2.03,6.64,3.36,2.67,1.32,4.84,2.39,6.52,3.2s3.26,1.54,4.7,2.2c1.98-4.17,3.69-7.88,5.1-11.12,1.44-3.24,2.83-6.54,4.19-9.91,.77,.52,1.66,1.07,2.59,1.63,.96,.56,2.03,1.16,3.26,1.76,1.23,.61,2.38,1.13,3.39,1.54,1.02,.42,1.95,.78,2.86,1.09-1.76,3.18-3.47,6.36-5.1,9.56-1.66,3.18-3.47,6.87-5.45,11.05l-4.89,10.26c-2,4.18-3.71,7.91-5.16,11.2-1.44,3.28-2.83,6.56-4.11,9.78-.77-.55-1.66-1.04-2.64-1.53s-2.08-1.04-3.31-1.64c-1.23-.63-2.35-1.17-3.34-1.67-.96-.49-1.9-.9-2.8-1.2,1.68-3.03,3.37-6.13,5-9.33,1.66-3.2,3.47-6.88,5.45-11.05l2.06-4.3c-1.84-.98-3.69-1.98-5.53-2.98Z"/><path class="cls-2" d="M285.34,231.83c.71-3.53,1.4-7.08,2.03-10.67,.89,.32,1.83,.67,2.89,1,1.05,.35,2.24,.68,3.56,1.02,1.32,.32,2.52,.57,3.62,.77,1.09,.18,2.1,.33,3.02,.44-1.04,3.48-2.05,6.95-2.99,10.43-.93,3.48-1.92,7.48-3,12l-2.63,11.09c-1.05,4.52-1.96,8.54-2.67,12.06-.74,3.53-1.38,7.02-1.97,10.43-.89-.32-1.86-.61-2.93-.89-1.04-.25-2.25-.55-3.57-.88-1.35-.33-2.53-.63-3.6-.88-1.07-.28-2.06-.46-2.98-.58,1-3.31,1.97-6.7,2.9-10.19,.96-3.5,1.95-7.49,3.03-11.99l2.6-11.08c1.08-4.51,1.99-8.54,2.7-12.08Z"/><path class="cls-2" d="M312.24,244.19c-.49-3.83-.95-7.05-1.38-9.63-.45-2.6-.81-4.89-1.12-6.87,1.55,.07,2.8,.05,3.71-.07,.93-.13,2.13-.42,3.61-.9,7.49,7.2,14.7,15.13,27.5,25.12,0,0,15.7,16.37,7.25-29.71,1.56,.08,2.8,.06,3.73-.07,.91-.12,2.12-.41,3.6-.89,.36,5.09,.73,9.67,1.08,13.77,.35,4.1,.7,7.97,1.05,11.58,.34,3.62,.73,7.19,1.14,10.72,.42,3.52,.88,7.29,1.39,11.29l1.25,9.98c-1.1,.03-2.22,.12-3.36,.27-1.19,.17-2.24,.36-3.14,.6-1.41-12.58-15.67-21.03-26.79-18.52-15.6,2.2-8.58,22.56-8.46,23.16-.66-.03-1.32,0-1.97,.09-.65,.09-1.27,.17-1.87,.25-1.25,.16-2.5,.38-3.73,.66,.06-.46,0-2.07-.19-4.8-.18-2.75-.43-6.09-.73-10.02-.3-3.94-.68-8.2-1.11-12.8-.45-4.6-.93-9-1.46-13.21Z"/><path class="cls-2" d="M374.08,228.48c-1.55-3.26-3.13-6.5-4.78-9.74,2.3-.97,4.54-1.9,6.79-2.8,2.24-.89,4.49-1.86,6.73-2.88,3.71-1.68,6.97-3.21,9.83-4.59,2.83-1.38,4.73-2.35,5.69-2.91,.16,.9,.51,2.02,1.1,3.36,.35,.81,.67,1.43,.91,1.87s.56,.92,.88,1.43c-1.5,.56-3.13,1.17-4.89,1.86s-3.47,1.34-5.16,1.98c-1.66,.64-3.15,1.23-4.49,1.76-1.31,.55-2.24,.93-2.8,1.19,1.02,2.9,2.11,5.74,3.29,8.51,1.18,2.77,2.38,5.56,3.61,8.37,3.23-1.53,6.12-2.94,8.71-4.23s5.26-2.66,8.04-4.11c.24,.94,.43,1.64,.56,2.13,.16,.48,.35,.98,.56,1.49,.19,.41,.4,.82,.67,1.22s.61,.98,1.1,1.76c-5.9,2.13-11.67,4.48-17.34,7.05,.72,1.63,1.42,3.28,2.11,4.92,.67,1.65,1.36,3.29,2.08,4.93,1.44,3.32,2.91,6.46,4.38,9.46,2.86-1.28,5.66-2.65,8.47-4.1,2.78-1.45,5.53-3.02,8.28-4.68,.13,.6,.29,1.15,.43,1.63,.16,.49,.43,1.15,.77,1.97s.67,1.42,.91,1.86,.48,.82,.72,1.07c-1.36,.57-3.05,1.28-5.05,2.16-1.98,.87-4.7,2.08-8.15,3.66-3.05,1.37-5.53,2.51-7.43,3.36-1.84,.85-3.34,1.5-4.46,2.05-1.12,.49-1.95,.87-2.54,1.17-.56,.3-1.02,.55-1.39,.79-1.18-3.28-2.43-6.56-3.77-9.91-1.34-3.33-2.94-7.13-4.78-11.38l-4.51-10.42c-1.84-4.25-3.55-7.99-5.08-11.24Z"/></g><path class="cls-3" d="M117.76,238.81s19.5-14.95,52.7,4.89c34.36,20.54,68.19,62.91,124.51,45.42"/><path class="cls-3" d="M124.87,258.97s12.9-8.18,33.69,7.53c31.94,24.14,50.18,51.86,92.4,46.92"/></svg>