<?xml version="1.0" encoding="UTF-8"?><svg id="Layer_1" xmlns="http://www.w3.org/2000/svg" viewBox="0 0 175 173"><defs><style>.cls-1{fill:#fff;}.cls-2{fill:#4a4a4a;}.cls-3{fill:none;stroke:#707070;}</style></defs><g id="Ellipse_8"><circle class="cls-2" cx="88.45" cy="85.85" r="84"/><circle class="cls-3" cx="88.45" cy="85.85" r="83.5"/></g><path id="Path_9" class="cls-1" d="M77.23,69.1s-35.58,2.43-32.99,38.59,61.83,36.04,61.46,0c1.07-30.48,0-47.17,0-47.17,0,0,13.96,11.27,25.53,9.35,.36-1.12,0-14.34,0-14.34,0,0-21.37-6.23-24.6-24.19,.04,.15-12.38,0-12.38,0l-.57,74.06s.62,15.58-18.37,15.63c-19.82,1.69-26.1-34.59,1.92-37-.26-1.09-.02-14.93-.02-14.93Z"/></svg>