<?xml version="1.0" encoding="UTF-8"?><svg id="Layer_1" xmlns="http://www.w3.org/2000/svg" viewBox="0 0 171 173"><defs><style>.cls-1{fill:#fff;}.cls-2{fill:#4a4a4a;}.cls-3{fill:none;stroke:#707070;}</style></defs><g id="Ellipse_9"><circle class="cls-2" cx="86.09" cy="86.73" r="84"/><circle class="cls-3" cx="86.09" cy="86.73" r="83.5"/></g><path id="Path_10" class="cls-1" d="M91.5,67.46s-2.43-20.95,13.56-26.31,25.17,3.43,30.03,5.6,14.38-5.6,14.38-5.6c0,0-2.2,8.51-9.73,12.03s12.21-1.08,13.01-2.83-11.64,12.03-11.64,12.03c0,0,1.48,46.89-37.29,64.45s-68.47-2.99-68.47-2.99c0,0,11.93,.78,19.94-1.96,5.31-1.96,10.29-4.73,14.77-8.2,0,0-11.53-2.17-17.23-7.77s-4.94-9.53-4.94-9.53c3.26,.57,6.59,.57,9.85,0,4.64-1-10.23,.76-15.95-12.69s-2.05-11.76-2.05-11.76c0,0,6.73,3.33,9.59,3.33s-17.15-9.14-6.47-32.13c.12,.27,37.68,32.53,48.65,24.34Z"/></svg>